<svg width="272" height="272" viewBox="0 0 272 272" fill="none" xmlns="http://www.w3.org/2000/svg">
<g id="hero / hero-idea">
<g id="bg" opacity="0.802189">
<path id="Fill 1" fill-rule="evenodd" clip-rule="evenodd" d="M239.489 158.055C231.545 69.7039 184.797 107.467 157.2 76.6052C108.831 22.5139 -14.252 63.6572 45.3767 138.188C63.9734 161.431 34.4974 211.359 53.8587 230.649C73.0134 249.735 106.735 260.036 125.934 260.036C184.894 260.036 247.446 219.206 239.489 158.055" fill="#CCF5FC"/>
<path id="Fill 4" fill-rule="evenodd" clip-rule="evenodd" d="M189.554 66.3423C188.357 65.0316 186.783 64.1049 185.117 63.4916C179.999 61.6083 174.325 62.6303 168.973 63.6736C166.636 64.1289 164.3 64.5849 161.963 65.0403C149.304 67.5083 168.5 79.0556 173.746 80.2549C177.917 81.2089 183.435 81.1403 187.575 80.2003C194.134 78.7103 193.576 70.7483 189.554 66.3423" fill="#CCF5FC"/>
<path id="Fill 6" fill-rule="evenodd" clip-rule="evenodd" d="M38.617 137.638C36.8483 133.758 33.9623 130.396 30.3957 128.059C29.073 127.193 27.5697 126.444 25.991 126.529C24.411 126.614 22.8017 127.803 22.749 129.383C22.7237 130.126 23.0317 130.84 23.4004 131.486C25.323 134.86 29.1723 137.042 33.0543 136.958L38.617 137.638Z" fill="#CCF5FC"/>
<path id="Fill 8" fill-rule="evenodd" clip-rule="evenodd" d="M39.798 146.136C35.5526 144.169 30.9473 142.983 26.28 142.653C24.7793 142.548 23.1766 142.554 21.8966 143.345C13.3113 148.647 20.3699 164.349 29.0186 165.241C37.314 166.097 49.764 150.754 39.798 146.136" fill="#CCF5FC"/>
<g id="shadow">
<mask id="mask0" mask-type="alpha" maskUnits="userSpaceOnUse" x="29" y="51" width="212" height="210">
<path id="Clip 70" fill-rule="evenodd" clip-rule="evenodd" d="M45.3767 138.188C63.9734 161.431 34.4967 211.358 53.8587 230.65V230.65C73.0134 249.734 106.735 260.036 125.934 260.036V260.036C184.894 260.036 247.445 219.206 239.489 158.055V158.055C231.545 69.7036 184.797 107.467 157.2 76.6056V76.6056C141.893 59.487 119.091 51.907 96.9774 51.9043V51.9043C49.2147 51.8983 4.61803 87.2436 45.3767 138.188" fill="white"/>
</mask>
<g mask="url(#mask0)">
<path id="Fill 69" fill-rule="evenodd" clip-rule="evenodd" d="M44.5492 163.248C51.6552 164.137 58.7812 165.169 65.6165 167.305C73.5032 169.769 80.8572 173.657 88.1599 177.523C103.84 185.824 119.751 194.291 132.483 206.647C136.619 210.66 140.375 215.045 144.124 219.421C149.874 226.135 155.625 232.849 161.375 239.562C162.625 241.022 163.892 242.505 164.704 244.247C166.225 247.504 166.227 251.705 169.036 253.945C169.036 253.945 158.607 270.868 136.84 271.843C115.073 272.817 49.7505 271.843 39.3505 242.594C28.9519 213.345 44.5492 163.248 44.5492 163.248" fill="#ABD0FF"/>
</g>
</g>
</g>
<g id="group">
<g id="person">
<path id="Fill 11" fill-rule="evenodd" clip-rule="evenodd" d="M155.597 70.5283C157.809 69.475 160.053 68.391 161.863 66.7403C163.674 65.0896 165.023 62.763 164.928 60.315C164.811 57.3383 162.664 54.8336 161.966 51.9376L148.998 51.9043L148.354 62.6736L155.597 70.5283Z" fill="#9E4D53"/>
<path id="Fill 13" fill-rule="evenodd" clip-rule="evenodd" d="M139.323 68.3331C143.545 69.5251 147.815 69.5251 152.134 68.3331H157.435C161.992 68.3331 165.933 68.8904 169.227 74.9224C172.52 80.9544 185.228 100.806 191.988 94.0904C198.746 87.3737 196.462 65.4237 196.462 63.6357H202.132C204.58 78.1864 205.226 88.3377 204.073 94.0904C202.972 99.583 200.123 107.274 189.41 107.274C176.218 107.274 169.311 97.9917 165.896 94.0904C161.057 88.5597 152.198 79.9737 139.323 68.3331" fill="#A08ADE"/>
<path id="Fill 15" fill-rule="evenodd" clip-rule="evenodd" d="M134.556 15.624C146.756 11.3786 154.021 14.9926 157.516 19.8693C161.012 24.746 167.924 44.6933 165.325 51.652C162.726 58.61 151.6 55.2786 149.948 56.7046C148.296 58.1306 150.978 63.636 152.66 65.3946C153.492 66.2653 152.009 73.5313 148.038 73.5406C143.985 73.55 137.434 66.284 137.434 65.3946C137.434 63.636 141.067 54.6506 137.434 51.652C133.8 48.6526 128.631 46.7493 124.29 40.2006C121.939 36.6553 121.567 30.9906 123.655 25.8666C125.424 21.5246 128.96 17.5713 134.556 15.624" fill="#E3A896"/>
<g id="Group 19">
<mask id="mask1" mask-type="alpha" maskUnits="userSpaceOnUse" x="116" y="12" width="47" height="59">
<path id="Clip 18" fill-rule="evenodd" clip-rule="evenodd" d="M116.154 12.667H162.86V70.0072H116.154V12.667Z" fill="white"/>
</mask>
<g mask="url(#mask1)">
<path id="Fill 17" fill-rule="evenodd" clip-rule="evenodd" d="M157.561 24.109C159.189 35.425 136.407 30.9203 137.085 36.2837C137.537 39.859 138.837 44.1063 140.987 49.0256C136.437 43.557 133.207 41.0757 131.296 41.5823C128.429 42.343 129.69 45.6116 134.374 47.2016C137.065 48.115 138.453 50.2163 139.217 52.3796C139.325 52.6856 140.971 66.8323 139.019 67.6983C130.587 71.439 125.354 70.575 120.32 65.5403C114.566 59.787 115.715 52.363 118.162 46.841C121.244 39.8843 116.047 34.5397 118.881 26.703C120.845 21.2723 125.136 16.7103 126.552 15.5557C130.013 12.7357 133.849 12.667 144.739 12.667C147.687 12.667 153.152 14.0917 155.29 15.5557C162.934 20.791 164.793 29.9497 160.848 26.1603C157.482 22.927 156.386 22.2437 157.561 24.109" fill="#9E4D53"/>
</g>
</g>
<path id="Stroke 20" d="M152.868 38.3529L155.671 37.5049" stroke="#BD7064" stroke-width="1.5" stroke-linecap="round"/>
<path id="Stroke 22" d="M134.963 41.8293L141.925 40.21" stroke="#BD7064" stroke-width="1.5" stroke-linecap="round"/>
<path id="Fill 24" fill-rule="evenodd" clip-rule="evenodd" d="M148.674 42.2502C149.519 41.9588 149.889 40.8102 149.501 39.6828C149.113 38.5561 148.114 37.8788 147.269 38.1701C146.424 38.4608 146.052 39.6101 146.44 40.7368C146.828 41.8635 147.828 42.5415 148.674 42.2502" fill="#9E4D53"/>
<path id="Fill 26" fill-rule="evenodd" clip-rule="evenodd" d="M161.287 39.4244C162.132 39.133 162.503 37.9837 162.115 36.857C161.727 35.7304 160.727 35.053 159.882 35.3437C159.037 35.635 158.666 36.7844 159.054 37.911C159.442 39.0377 160.442 39.7157 161.287 39.4244" fill="#9E4D53"/>
<path id="Stroke 28" d="M140.986 38.1125C141.877 36.7111 143.028 35.6971 144.439 35.0711C145.849 34.4445 147.389 34.2951 149.059 34.6231" stroke="#9E4D53" stroke-width="1.5" stroke-linecap="round"/>
<path id="Stroke 30" d="M157.435 44.71C158.541 43.536 159.094 42.6653 159.094 42.098C159.094 41.2473 156.941 40.688 156.31 36.5013C155.679 32.314 159.383 30.028 161.703 30.7473" stroke="#9E4D53" stroke-width="1.5" stroke-linecap="round"/>
<path id="Stroke 32" d="M154.021 48.3211C155.447 48.9691 156.761 49.1698 157.967 48.9238C159.173 48.6784 160.133 47.9331 160.847 46.6904" stroke="#9E4D53" stroke-width="1.5" stroke-linecap="round"/>
<path id="Fill 34" fill-rule="evenodd" clip-rule="evenodd" d="M164.623 88.9203V107.274C164.623 110.782 134.232 114.844 134.232 109.144C134.232 104.568 133.462 97.8263 131.923 88.9203C117.458 96.963 111.022 105.092 112.616 113.308C114.21 121.523 118.662 128.147 125.971 133.18L123.098 137.319C111.914 130.412 105.228 123.922 103.039 117.851C99.7556 108.743 102.791 97.2437 106.938 91.4557C111.084 85.667 123.101 69.491 130.467 69.491C135.378 69.491 137.569 66.943 137.04 61.8477L148.038 70.587L153.129 61.8477C153.129 63.9263 153.887 66.0143 155.404 68.111C156.211 69.2257 158.316 76.739 160.848 80.5863C162.336 82.8483 163.594 85.6263 164.623 88.9203" fill="#A08ADE"/>
<path id="Fill 36" fill-rule="evenodd" clip-rule="evenodd" d="M125.971 133.179C129.152 131.936 131.541 131.936 133.136 133.179C135.529 135.043 136.933 139.718 136.231 139.718C135.529 139.718 127.73 137.378 126.552 139.718C125.767 141.278 124.616 140.478 123.097 137.318L125.971 133.179Z" fill="#E3A896"/>
<path id="Stroke 38" d="M135.472 139.295C133.504 137.722 132.059 136.936 131.137 136.936" stroke="#9E4D53" stroke-width="1.5" stroke-linecap="round"/>
<path id="Stroke 40" d="M136.191 137.24C134.223 135.668 132.778 134.881 131.856 134.881" stroke="#9E4D53" stroke-width="1.5" stroke-linecap="round"/>
<path id="Fill 42" fill-rule="evenodd" clip-rule="evenodd" d="M196.748 65.8654C195.415 54.6388 195.035 48.6368 195.605 47.8581C196.177 47.0801 196.851 49.1948 197.629 54.2034C200.882 53.4128 202.509 53.6341 202.509 54.8668C202.509 56.7161 203.762 59.6154 202.509 60.3801C201.673 60.8901 201.673 62.4628 202.509 65.1008L196.748 65.8654Z" fill="#E3A896"/>
<path id="Stroke 44" d="M199.326 59.7979C199.877 57.3392 199.951 55.6952 199.546 54.8672" stroke="#9E4D53" stroke-width="1.5" stroke-linecap="round"/>
<path id="Stroke 46" d="M201.52 59.4121C202.071 56.9534 202.144 55.3101 201.74 54.4814" stroke="#9E4D53" stroke-width="1.5" stroke-linecap="round"/>
<path id="Stroke 48" d="M162.782 81.8115C163.508 84.6635 164.958 87.9062 167.13 91.5402L162.782 93.5502" stroke="#7B5D96" stroke-width="1.5" stroke-linecap="round" stroke-linejoin="round"/>
<path id="Stroke 50" fill-rule="evenodd" clip-rule="evenodd" d="M147.319 45.8511C150.299 45.8511 152.713 43.2751 152.713 40.0971C152.713 36.9198 150.299 34.3438 147.319 34.3438C144.34 34.3438 141.925 36.9198 141.925 40.0971C141.925 43.2751 144.34 45.8511 147.319 45.8511Z" stroke="#BD7064" stroke-width="1.5" stroke-linecap="round"/>
<path id="Stroke 52" fill-rule="evenodd" clip-rule="evenodd" d="M160.984 41.5357C163.964 41.5357 166.379 38.9597 166.379 35.7823C166.379 32.6043 163.964 30.0283 160.984 30.0283C158.005 30.0283 155.59 32.6043 155.59 35.7823C155.59 38.9597 158.005 41.5357 160.984 41.5357Z" stroke="#BD7064" stroke-width="1.5" stroke-linecap="round"/>
<path id="Fill 54" fill-rule="evenodd" clip-rule="evenodd" d="M197.975 22.8382C197.457 25.4995 196.609 28.0748 195.679 30.6188C194.889 28.2615 193.893 25.9875 192.786 23.7442C192.106 22.3662 191.429 20.8675 191.581 19.2908C191.711 17.9268 192.799 16.4108 194.339 16.7682C194.525 16.8108 194.693 16.7975 194.842 16.7495C196.014 16.8895 197.263 17.2455 197.867 18.3195C198.617 19.6508 198.25 21.4248 197.975 22.8382M198.942 16.6241C197.778 15.3028 195.938 14.9401 194.265 14.8201C194.113 14.8095 193.981 14.8301 193.867 14.8741C192.509 14.9061 191.239 15.6388 190.477 16.8148C189.447 18.4021 189.545 20.4875 190.109 22.2195C190.737 24.1448 191.823 25.9055 192.623 27.7608C193.466 29.7175 194.145 31.7448 194.672 33.8095C194.917 34.7708 196.171 34.6228 196.479 33.8095C197.989 29.8235 199.569 25.7535 200.077 21.4928C200.281 19.7875 200.123 17.9648 198.942 16.6241" fill="#F7B76E"/>
<path id="Fill 56" fill-rule="evenodd" clip-rule="evenodd" d="M194.185 40.497C194.186 40.5223 194.185 40.543 194.181 40.5603C194.182 40.561 194.182 40.5616 194.182 40.5623C194.19 40.5363 194.19 40.5136 194.185 40.497" fill="#F7B76E"/>
<path id="Fill 58" fill-rule="evenodd" clip-rule="evenodd" d="M197.018 39.8598C197.012 39.8485 197.006 39.8398 197.002 39.8225C197.004 39.8358 197.01 39.8485 197.018 39.8618V39.8598Z" fill="#F7B76E"/>
<path id="Fill 60" fill-rule="evenodd" clip-rule="evenodd" d="M194.377 41.1051C194.38 41.1111 194.384 41.1165 194.388 41.1218C194.39 41.1258 194.39 41.1245 194.391 41.1278C194.402 41.1411 194.41 41.1478 194.42 41.1611C194.426 41.1578 194.412 41.1271 194.377 41.1051" fill="#F7B76E"/>
<path id="Fill 62" fill-rule="evenodd" clip-rule="evenodd" d="M196.928 40.4499C196.92 40.4639 196.912 40.4839 196.908 40.5019C196.912 40.4926 196.915 40.4859 196.92 40.4779C196.921 40.4719 196.921 40.4739 196.923 40.4666C196.925 40.4612 196.926 40.4552 196.928 40.4499" fill="#F7B76E"/>
<path id="Fill 64" fill-rule="evenodd" clip-rule="evenodd" d="M196.908 40.5016C196.895 40.5276 196.882 40.5529 196.878 40.5596C196.831 40.6476 196.776 40.7289 196.721 40.8123C196.717 40.8163 196.715 40.8176 196.709 40.8229C196.675 40.8556 196.644 40.8929 196.611 40.9256C196.576 40.9596 196.539 40.9916 196.504 41.0243C196.495 41.0329 196.492 41.0356 196.485 41.0423C196.478 41.0469 196.475 41.0483 196.464 41.0556C196.383 41.1076 196.302 41.1596 196.217 41.2056C196.167 41.2323 196.115 41.2556 196.064 41.2803C196.056 41.2823 196.052 41.2836 196.041 41.2869C195.947 41.3129 195.856 41.3469 195.761 41.3703C195.713 41.3816 195.666 41.3923 195.617 41.4016C195.583 41.4083 195.547 41.4143 195.512 41.4196C195.427 41.4329 195.317 41.4276 195.248 41.4276C195.172 41.4276 195.035 41.4383 194.949 41.4149C194.943 41.4129 194.939 41.4103 194.932 41.4089C194.882 41.3969 194.831 41.3876 194.781 41.3743C194.781 41.3743 194.735 41.3609 194.695 41.3489C194.667 41.3336 194.562 41.2869 194.542 41.2749C194.529 41.2656 194.498 41.2409 194.478 41.2249L194.444 41.1903C194.439 41.1856 194.428 41.1716 194.42 41.1609C194.416 41.1629 194.407 41.1543 194.391 41.1276C194.377 41.1116 194.363 41.0943 194.357 41.0923C194.365 41.0949 194.369 41.1009 194.377 41.1049C194.358 41.0729 194.338 41.0416 194.319 41.0083C194.317 41.0036 194.303 40.9749 194.289 40.9469C194.277 40.9123 194.259 40.8683 194.257 40.8616C194.239 40.8076 194.225 40.7529 194.211 40.6976C194.2 40.6529 194.191 40.6076 194.181 40.5623C194.18 40.5676 194.181 40.5709 194.179 40.5763C194.181 40.5723 194.18 40.5649 194.181 40.5603C194.179 40.5503 194.177 40.5409 194.175 40.5309C194.158 40.4583 194.176 40.4643 194.185 40.4969C194.18 40.4296 194.163 40.3469 194.162 40.3036C194.16 40.1949 194.168 40.0876 194.173 39.9789C194.175 39.9576 194.175 39.9563 194.175 39.9476C194.185 39.9029 194.199 39.8563 194.2 39.8489C194.224 39.7436 194.253 39.6403 194.287 39.5376C194.301 39.4983 194.315 39.4596 194.329 39.4203C194.333 39.4143 194.334 39.4123 194.339 39.4036C194.388 39.3089 194.436 39.2149 194.493 39.1249C194.516 39.0889 194.541 39.0556 194.563 39.0196C194.564 39.0183 194.564 39.0176 194.565 39.0163C194.567 39.0143 194.567 39.0143 194.57 39.0116C194.641 38.9369 194.713 38.8656 194.785 38.7929C194.786 38.7916 194.786 38.7916 194.787 38.7903C194.821 38.7683 194.853 38.7449 194.888 38.7243C194.894 38.7209 194.901 38.7169 194.907 38.7136C195.129 39.0369 195.529 39.2396 195.927 39.1089C195.978 39.0923 196.028 39.0769 196.08 39.0649L196.088 39.0629C196.117 39.0616 196.145 39.0596 196.173 39.0596C196.176 39.0596 196.182 39.0603 196.185 39.0609C196.179 39.0536 196.189 39.0463 196.236 39.0576C196.247 39.0603 196.258 39.0629 196.269 39.0649C196.279 39.0656 196.292 39.0669 196.299 39.0649C196.291 39.0676 196.285 39.0663 196.279 39.0676C196.306 39.0736 196.333 39.0789 196.359 39.0863C196.402 39.0983 196.445 39.1136 196.487 39.1276C196.496 39.1329 196.504 39.1376 196.518 39.1449C196.556 39.1649 196.592 39.1863 196.629 39.2089C196.643 39.2176 196.658 39.2236 196.672 39.2296C196.723 39.2689 196.773 39.3243 196.811 39.3643C196.813 39.3676 196.839 39.3943 196.864 39.4203C196.868 39.4309 196.869 39.4369 196.878 39.4516C196.905 39.4943 196.927 39.5383 196.951 39.5823C196.952 39.5829 196.951 39.5829 196.952 39.5843C196.961 39.6236 196.978 39.7463 197.002 39.8236C196.994 39.7776 197.015 39.7483 197.017 39.8363C197.017 39.8443 197.017 39.8523 197.018 39.8609C197.021 39.8669 197.024 39.8776 197.027 39.8816C197.022 39.8763 197.021 39.8689 197.018 39.8629C197.019 39.8996 197.021 39.9363 197.021 39.9729C197.021 40.0269 197.015 40.0809 197.014 40.1343C196.987 40.2403 196.958 40.3449 196.927 40.4496C196.932 40.4429 196.936 40.4336 196.94 40.4349C196.941 40.4356 196.931 40.4549 196.92 40.4776C196.904 40.5276 196.901 40.5256 196.908 40.5016M198.821 39.3169C198.559 38.0256 197.241 37.0836 195.949 37.1989C195.785 36.9196 195.501 36.7096 195.16 36.7403C194.48 36.8023 193.889 37.0543 193.394 37.5303C192.957 37.9496 192.656 38.4996 192.471 39.0709C192.097 40.2216 192.261 41.7683 193.215 42.6056C194.292 43.5516 196.031 43.4703 197.226 42.7883C198.441 42.0943 199.102 40.6916 198.821 39.3169" fill="#F7B76E"/>
<path id="Fill 66" fill-rule="evenodd" clip-rule="evenodd" d="M196.278 39.0668C196.275 39.0661 196.272 39.0654 196.268 39.0648C196.241 39.0648 196.21 39.0614 196.185 39.0601C196.193 39.0688 196.228 39.0768 196.278 39.0668" fill="#F7B76E"/>
</g>
<g id="pants">
<mask id="mask2" mask-type="alpha" maskUnits="userSpaceOnUse" x="29" y="51" width="212" height="210">
<path id="Clip 73" fill-rule="evenodd" clip-rule="evenodd" d="M45.3767 138.188C63.9734 161.431 34.4967 211.358 53.8587 230.65V230.65C73.0134 249.734 106.735 260.036 125.934 260.036V260.036C184.894 260.036 247.445 219.206 239.489 158.055V158.055C231.545 69.7036 184.797 107.467 157.2 76.6056V76.6056C141.893 59.487 119.091 51.907 96.9774 51.9043V51.9043C49.2147 51.8983 4.61803 87.2436 45.3767 138.188V138.188Z" fill="white"/>
</mask>
<g mask="url(#mask2)">
<path id="Fill 72" fill-rule="evenodd" clip-rule="evenodd" d="M135.362 107.274C127.75 123.923 123.945 138.084 123.945 149.756C123.945 167.264 131.447 269.24 131.746 272.825C131.946 275.215 132.669 273.927 133.914 268.962C134.32 272.932 136.207 274.917 139.574 274.917C140.612 274.917 136.326 270.284 136.751 265.808C139.259 239.399 148.044 153.616 149.892 153.616C152.052 153.616 164.046 269.587 164.514 272.825C164.824 274.983 165.497 273.696 166.53 268.962C167.184 272.223 168.918 274.208 171.735 274.917C174.584 275.635 168.872 270.792 168.872 266.232C168.872 241.226 175.009 165.705 175.009 149.756C175.009 139.123 171.51 124.963 164.514 107.274H135.362Z" fill="#344C8A"/>
</g>
</g>
</g>
</g>
</svg>
